<svg width="131" height="78" viewBox="0 0 131 78" fill="none" xmlns="http://www.w3.org/2000/svg">
<path d="M8.3116 25.3613L41.1457 74.7362L73.9802 25.3615L8.3116 25.3613Z" fill="url(#paint0_linear_3_2)"/>
<path d="M8.3116 25.3613L41.1457 74.7362L73.9802 25.3615L8.3116 25.3613Z" stroke="url(#paint1_linear_3_2)" stroke-width="3"/>
<path d="M8.3116 25.3613L41.1457 74.7362L73.9802 25.3615L8.3116 25.3613Z" stroke="black" stroke-opacity="0.2" stroke-width="3"/>
<path d="M11.3627 7.30966V4.45455H23.6567V7.30966H19.2462V19H15.7803V7.30966H11.3627ZM38.4383 11.7273C38.4383 13.3277 38.1306 14.6842 37.515 15.7969C36.8995 16.9096 36.0662 17.7547 35.015 18.3324C33.9686 18.91 32.7944 19.1989 31.4923 19.1989C30.1855 19.1989 29.0089 18.9077 27.9625 18.3253C26.9161 17.7429 26.0851 16.8977 25.4696 15.7898C24.8588 14.6771 24.5534 13.3229 24.5534 11.7273C24.5534 10.1269 24.8588 8.77036 25.4696 7.65767C26.0851 6.54498 26.9161 5.69981 27.9625 5.12216C29.0089 4.54451 30.1855 4.25568 31.4923 4.25568C32.7944 4.25568 33.9686 4.54451 35.015 5.12216C36.0662 5.69981 36.8995 6.54498 37.515 7.65767C38.1306 8.77036 38.4383 10.1269 38.4383 11.7273ZM34.8446 11.7273C34.8446 10.7803 34.7096 9.98011 34.4398 9.3267C34.1746 8.67329 33.7911 8.1785 33.2892 7.84233C32.792 7.50615 32.1931 7.33807 31.4923 7.33807C30.7963 7.33807 30.1973 7.50615 29.6954 7.84233C29.1935 8.1785 28.8077 8.67329 28.5378 9.3267C28.2726 9.98011 28.14 10.7803 28.14 11.7273C28.14 12.6742 28.2726 13.4744 28.5378 14.1278C28.8077 14.7812 29.1935 15.276 29.6954 15.6122C30.1973 15.9484 30.7963 16.1165 31.4923 16.1165C32.1931 16.1165 32.792 15.9484 33.2892 15.6122C33.7911 15.276 34.1746 14.7812 34.4398 14.1278C34.7096 13.4744 34.8446 12.6742 34.8446 11.7273ZM45.8673 19H40.4909V4.45455H45.8602C47.3422 4.45455 48.6183 4.74574 49.6883 5.32812C50.7632 5.90578 51.5917 6.73911 52.1741 7.82812C52.7565 8.91241 53.0477 10.2098 53.0477 11.7202C53.0477 13.2353 52.7565 14.5374 52.1741 15.6264C51.5965 16.7154 50.7703 17.5511 49.6954 18.1335C48.6206 18.7112 47.3446 19 45.8673 19ZM44.0065 16.0028H45.7324C46.5468 16.0028 47.2357 15.8655 47.7991 15.5909C48.3673 15.3116 48.7958 14.8594 49.0846 14.2344C49.3782 13.6046 49.525 12.7666 49.525 11.7202C49.525 10.6738 49.3782 9.84044 49.0846 9.22017C48.7911 8.59517 48.3578 8.14536 47.7849 7.87074C47.2167 7.59138 46.516 7.4517 45.6827 7.4517H44.0065V16.0028ZM68.829 11.7273C68.829 13.3277 68.5212 14.6842 67.9057 15.7969C67.2901 16.9096 66.4568 17.7547 65.4057 18.3324C64.3593 18.91 63.185 19.1989 61.8829 19.1989C60.5761 19.1989 59.3995 18.9077 58.3531 18.3253C57.3067 17.7429 56.4757 16.8977 55.8602 15.7898C55.2494 14.6771 54.944 13.3229 54.944 11.7273C54.944 10.1269 55.2494 8.77036 55.8602 7.65767C56.4757 6.54498 57.3067 5.69981 58.3531 5.12216C59.3995 4.54451 60.5761 4.25568 61.8829 4.25568C63.185 4.25568 64.3593 4.54451 65.4057 5.12216C66.4568 5.69981 67.2901 6.54498 67.9057 7.65767C68.5212 8.77036 68.829 10.1269 68.829 11.7273ZM65.2352 11.7273C65.2352 10.7803 65.1003 9.98011 64.8304 9.3267C64.5652 8.67329 64.1817 8.1785 63.6798 7.84233C63.1827 7.50615 62.5837 7.33807 61.8829 7.33807C61.1869 7.33807 60.588 7.50615 60.0861 7.84233C59.5842 8.1785 59.1983 8.67329 58.9284 9.3267C58.6632 9.98011 58.5307 10.7803 58.5307 11.7273C58.5307 12.6742 58.6632 13.4744 58.9284 14.1278C59.1983 14.7812 59.5842 15.276 60.0861 15.6122C60.588 15.9484 61.1869 16.1165 61.8829 16.1165C62.5837 16.1165 63.1827 15.9484 63.6798 15.6122C64.1817 15.276 64.5652 14.7812 64.8304 14.1278C65.1003 13.4744 65.2352 12.6742 65.2352 11.7273Z" fill="url(#paint2_linear_3_2)"/>
<path d="M11.3627 7.30966H10.3627V8.30966H11.3627V7.30966ZM11.3627 4.45455V3.45455H10.3627V4.45455H11.3627ZM23.6567 4.45455H24.6567V3.45455H23.6567V4.45455ZM23.6567 7.30966V8.30966H24.6567V7.30966H23.6567ZM19.2462 7.30966V6.30966H18.2462V7.30966H19.2462ZM19.2462 19V20H20.2462V19H19.2462ZM15.7803 19H14.7803V20H15.7803V19ZM15.7803 7.30966H16.7803V6.30966H15.7803V7.30966ZM12.3627 7.30966V4.45455H10.3627V7.30966H12.3627ZM11.3627 5.45455H23.6567V3.45455H11.3627V5.45455ZM22.6567 4.45455V7.30966H24.6567V4.45455H22.6567ZM23.6567 6.30966H19.2462V8.30966H23.6567V6.30966ZM18.2462 7.30966V19H20.2462V7.30966H18.2462ZM19.2462 18H15.7803V20H19.2462V18ZM16.7803 19V7.30966H14.7803V19H16.7803ZM15.7803 6.30966H11.3627V8.30966H15.7803V6.30966ZM37.515 15.7969L36.64 15.3128L36.64 15.3128L37.515 15.7969ZM35.015 18.3324L34.5334 17.456L34.5318 17.4569L35.015 18.3324ZM27.9625 18.3253L28.4488 17.4515L28.4488 17.4515L27.9625 18.3253ZM25.4696 15.7898L24.593 16.271L24.5954 16.2754L25.4696 15.7898ZM25.4696 7.65767L24.5946 7.17361L24.593 7.17647L25.4696 7.65767ZM27.9625 5.12216L28.4458 5.99762L28.4458 5.99762L27.9625 5.12216ZM35.015 5.12216L34.5318 5.99762L34.5334 5.99854L35.015 5.12216ZM37.515 7.65767L36.64 8.14173L36.64 8.14173L37.515 7.65767ZM34.4398 9.3267L33.5131 9.70273L33.5155 9.70846L34.4398 9.3267ZM33.2892 7.84233L32.729 8.67073L32.7327 8.67317L33.2892 7.84233ZM29.6954 7.84233L30.252 8.67317L30.252 8.67317L29.6954 7.84233ZM28.5378 9.3267L27.6135 8.94494L27.6112 8.95069L28.5378 9.3267ZM28.5378 14.1278L27.6111 14.5039L27.6135 14.5096L28.5378 14.1278ZM29.6954 15.6122L30.252 14.7814L30.252 14.7814L29.6954 15.6122ZM33.2892 15.6122L32.7327 14.7814L32.729 14.7838L33.2892 15.6122ZM34.4398 14.1278L33.5155 13.7461L33.5131 13.7518L34.4398 14.1278ZM37.4383 11.7273C37.4383 13.2013 37.155 14.3819 36.64 15.3128L38.3901 16.2809C39.1061 14.9865 39.4383 13.454 39.4383 11.7273H37.4383ZM36.64 15.3128C36.1102 16.2706 35.4089 16.9749 34.5334 17.456L35.4967 19.2088C36.7235 18.5346 37.6889 17.5485 38.3901 16.2809L36.64 15.3128ZM34.5318 17.4569C33.6463 17.9457 32.6409 18.1989 31.4923 18.1989V20.1989C32.9479 20.1989 34.2909 19.8744 35.4983 19.2078L34.5318 17.4569ZM31.4923 18.1989C30.3398 18.1989 29.3332 17.9437 28.4488 17.4515L27.4762 19.1991C28.6846 19.8716 30.0312 20.1989 31.4923 20.1989V18.1989ZM28.4488 17.4515C27.575 16.9652 26.8742 16.259 26.3437 15.3041L24.5954 16.2754C25.296 17.5364 26.2572 18.5206 27.4762 19.1991L28.4488 17.4515ZM26.3462 15.3086C25.8346 14.3766 25.5534 13.1972 25.5534 11.7273H23.5534C23.5534 13.4487 23.883 14.9776 24.593 16.271L26.3462 15.3086ZM25.5534 11.7273C25.5534 10.2521 25.8348 9.07047 26.3462 8.13887L24.593 7.17647C23.8828 8.47025 23.5534 10.0017 23.5534 11.7273H25.5534ZM26.3446 8.14173C26.8751 7.18279 27.5749 6.4784 28.4458 5.99762L27.4792 4.2467C26.2573 4.92122 25.2951 5.90717 24.5946 7.17361L26.3446 8.14173ZM28.4458 5.99762C29.3307 5.50913 30.3384 5.25568 31.4923 5.25568V3.25568C30.0326 3.25568 28.6871 3.57988 27.4792 4.2467L28.4458 5.99762ZM31.4923 5.25568C32.6409 5.25568 33.6463 5.50884 34.5318 5.99762L35.4983 4.2467C34.2909 3.58018 32.9479 3.25568 31.4923 3.25568V5.25568ZM34.5334 5.99854C35.4089 6.47964 36.1102 7.18394 36.64 8.14173L38.3901 7.17361C37.6889 5.90602 36.7235 4.91998 35.4967 4.24578L34.5334 5.99854ZM36.64 8.14173C37.155 9.07269 37.4383 10.2532 37.4383 11.7273H39.4383C39.4383 10.0006 39.1061 8.46803 38.3901 7.17361L36.64 8.14173ZM35.8446 11.7273C35.8446 10.6913 35.6978 9.75295 35.364 8.94494L33.5155 9.70846C33.7215 10.2073 33.8446 10.8693 33.8446 11.7273H35.8446ZM35.3664 8.95069C35.039 8.14386 34.54 7.47654 33.8457 7.01149L32.7327 8.67317C33.0422 8.88046 33.3103 9.20273 33.5131 9.70272L35.3664 8.95069ZM33.8493 7.01394C33.1605 6.54814 32.3584 6.33807 31.4923 6.33807V8.33807C32.0277 8.33807 32.4236 8.46417 32.729 8.67072L33.8493 7.01394ZM31.4923 6.33807C30.6291 6.33807 29.8295 6.54895 29.1389 7.01149L30.252 8.67317C30.5652 8.46336 30.9635 8.33807 31.4923 8.33807V6.33807ZM29.1389 7.01149C28.4463 7.47543 27.9457 8.14061 27.6135 8.94494L29.462 9.70846C29.6696 9.20598 29.9408 8.88158 30.252 8.67317L29.1389 7.01149ZM27.6112 8.95069C27.284 9.75685 27.14 10.693 27.14 11.7273H29.14C29.14 10.8676 29.2612 10.2034 29.4644 9.70272L27.6112 8.95069ZM27.14 11.7273C27.14 12.7615 27.284 13.6977 27.6112 14.5039L29.4644 13.7518C29.2612 13.2512 29.14 12.587 29.14 11.7273H27.14ZM27.6135 14.5096C27.9457 15.3139 28.4463 15.9791 29.1389 16.4431L30.252 14.7814C29.9408 14.573 29.6696 14.2486 29.462 13.7461L27.6135 14.5096ZM29.1389 16.4431C29.8295 16.9056 30.6291 17.1165 31.4923 17.1165V15.1165C30.9635 15.1165 30.5652 14.9912 30.252 14.7814L29.1389 16.4431ZM31.4923 17.1165C32.3584 17.1165 33.1605 16.9064 33.8493 16.4406L32.729 14.7838C32.4236 14.9904 32.0277 15.1165 31.4923 15.1165V17.1165ZM33.8457 16.4431C34.54 15.978 35.039 15.3107 35.3664 14.5039L33.5131 13.7518C33.3103 14.2518 33.0422 14.5741 32.7327 14.7814L33.8457 16.4431ZM35.364 14.5096C35.6978 13.7016 35.8446 12.7633 35.8446 11.7273H33.8446C33.8446 12.5852 33.7215 13.2473 33.5155 13.7461L35.364 14.5096ZM40.4909 19H39.4909V20H40.4909V19ZM40.4909 4.45455V3.45455H39.4909V4.45455H40.4909ZM49.6883 5.32812L49.2103 6.20648L49.2149 6.20897L49.6883 5.32812ZM52.1741 7.82812L51.2923 8.29971L51.2932 8.30131L52.1741 7.82812ZM52.1741 15.6264L51.2923 15.1548L51.2907 15.1578L52.1741 15.6264ZM49.6954 18.1335L50.1689 19.0144L50.1719 19.0127L49.6954 18.1335ZM44.0065 16.0028H43.0065V17.0028H44.0065V16.0028ZM47.7991 15.5909L48.2373 16.4898L48.2404 16.4883L47.7991 15.5909ZM49.0846 14.2344L48.1783 13.8119L48.1769 13.8149L49.0846 14.2344ZM49.0846 9.22017L48.1795 9.64531L48.1808 9.64796L49.0846 9.22017ZM47.7849 7.87074L47.3437 8.76818L47.3527 8.77249L47.7849 7.87074ZM44.0065 7.4517V6.4517H43.0065V7.4517H44.0065ZM45.8673 18H40.4909V20H45.8673V18ZM41.4909 19V4.45455H39.4909V19H41.4909ZM40.4909 5.45455H45.8602V3.45455H40.4909V5.45455ZM45.8602 5.45455C47.2111 5.45455 48.3155 5.71946 49.2103 6.20647L50.1664 4.44978C48.9211 3.77202 47.4734 3.45455 45.8602 3.45455V5.45455ZM49.2149 6.20897C50.1141 6.6922 50.8016 7.38212 51.2923 8.29971L53.056 7.35654C52.3819 6.0961 51.4122 5.11935 50.1617 4.44728L49.2149 6.20897ZM51.2932 8.30131C51.7816 9.21062 52.0477 10.3378 52.0477 11.7202H54.0477C54.0477 10.0817 53.7315 8.61419 53.0551 7.35494L51.2932 8.30131ZM52.0477 11.7202C52.0477 13.1077 51.7814 14.2403 51.2923 15.1548L53.056 16.098C53.7316 14.8345 54.0477 13.363 54.0477 11.7202H52.0477ZM51.2907 15.1578C50.8045 16.0744 50.1192 16.7666 49.219 17.2543L50.1719 19.0127C51.4213 18.3357 52.3884 17.3564 53.0576 16.095L51.2907 15.1578ZM49.222 17.2527C48.3204 17.7372 47.2139 18 45.8673 18V20C47.4753 20 48.9208 19.6851 50.1688 19.0144L49.222 17.2527ZM44.0065 17.0028H45.7324V15.0028H44.0065V17.0028ZM45.7324 17.0028C46.6548 17.0028 47.5028 16.8478 48.2373 16.4898L47.361 14.692C46.9686 14.8833 46.4387 15.0028 45.7324 15.0028V17.0028ZM48.2404 16.4883C49.0327 16.0988 49.6164 15.4675 49.9924 14.6539L48.1769 13.8149C47.9752 14.2513 47.702 14.5244 47.3579 14.6935L48.2404 16.4883ZM49.991 14.6569C50.3694 13.8451 50.525 12.8453 50.525 11.7202H48.525C48.525 12.6878 48.387 13.3642 48.1783 13.8119L49.991 14.6569ZM50.525 11.7202C50.525 10.5962 50.3698 9.59802 49.9885 8.79238L48.1808 9.64796C48.3866 10.0828 48.525 10.7513 48.525 11.7202H50.525ZM49.9898 8.79503C49.6073 7.98081 49.0165 7.35212 48.2172 6.96898L47.3527 8.77249C47.6992 8.9386 47.9748 9.20953 48.1795 9.64531L49.9898 8.79503ZM48.2262 6.97334C47.4844 6.60863 46.6226 6.4517 45.6827 6.4517V8.4517C46.4094 8.4517 46.9491 8.57414 47.3437 8.76814L48.2262 6.97334ZM45.6827 6.4517H44.0065V8.4517H45.6827V6.4517ZM43.0065 7.4517V16.0028H45.0065V7.4517H43.0065ZM67.9057 15.7969L67.0306 15.3128L67.0306 15.3128L67.9057 15.7969ZM65.4057 18.3324L64.9241 17.456L64.9224 17.4569L65.4057 18.3324ZM58.3531 18.3253L58.8394 17.4515L58.8394 17.4515L58.3531 18.3253ZM55.8602 15.7898L54.9836 16.271L54.9861 16.2754L55.8602 15.7898ZM55.8602 7.65767L54.9852 7.17361L54.9836 7.17647L55.8602 7.65767ZM58.3531 5.12216L58.8364 5.99762L58.8364 5.99762L58.3531 5.12216ZM65.4057 5.12216L64.9224 5.99762L64.9241 5.99854L65.4057 5.12216ZM67.9057 7.65767L67.0306 8.14173L67.0306 8.14173L67.9057 7.65767ZM64.8304 9.3267L63.9038 9.70273L63.9061 9.70846L64.8304 9.3267ZM63.6798 7.84233L63.1197 8.67073L63.1233 8.67317L63.6798 7.84233ZM60.0861 7.84233L60.6426 8.67317L60.6426 8.67317L60.0861 7.84233ZM58.9284 9.3267L58.0041 8.94494L58.0018 8.95069L58.9284 9.3267ZM58.9284 14.1278L58.0018 14.5039L58.0041 14.5096L58.9284 14.1278ZM60.0861 15.6122L60.6426 14.7814L60.6426 14.7814L60.0861 15.6122ZM63.6798 15.6122L63.1233 14.7814L63.1197 14.7838L63.6798 15.6122ZM64.8304 14.1278L63.9061 13.7461L63.9038 13.7518L64.8304 14.1278ZM67.829 11.7273C67.829 13.2013 67.5456 14.3819 67.0306 15.3128L68.7807 16.2809C69.4968 14.9865 69.829 13.454 69.829 11.7273H67.829ZM67.0306 15.3128C66.5008 16.2706 65.7995 16.9749 64.9241 17.456L65.8873 19.2088C67.1141 18.5346 68.0795 17.5485 68.7807 16.2809L67.0306 15.3128ZM64.9224 17.4569C64.037 17.9457 63.0315 18.1989 61.8829 18.1989V20.1989C63.3386 20.1989 64.6816 19.8744 65.889 19.2078L64.9224 17.4569ZM61.8829 18.1989C60.7304 18.1989 59.7238 17.9437 58.8394 17.4515L57.8668 19.1991C59.0753 19.8716 60.4219 20.1989 61.8829 20.1989V18.1989ZM58.8394 17.4515C57.9656 16.9652 57.2649 16.259 56.7344 15.3041L54.9861 16.2754C55.6866 17.5364 56.6478 18.5206 57.8668 19.1991L58.8394 17.4515ZM56.7368 15.3086C56.2252 14.3766 55.944 13.1972 55.944 11.7273H53.944C53.944 13.4487 54.2736 14.9776 54.9836 16.271L56.7368 15.3086ZM55.944 11.7273C55.944 10.2521 56.2254 9.07047 56.7368 8.13887L54.9836 7.17647C54.2734 8.47025 53.944 10.0017 53.944 11.7273H55.944ZM56.7352 8.14173C57.2657 7.18279 57.9655 6.4784 58.8364 5.99762L57.8698 4.2467C56.6479 4.92122 55.6858 5.90717 54.9852 7.17361L56.7352 8.14173ZM58.8364 5.99762C59.7213 5.50913 60.729 5.25568 61.8829 5.25568V3.25568C60.4233 3.25568 59.0777 3.57988 57.8698 4.2467L58.8364 5.99762ZM61.8829 5.25568C63.0315 5.25568 64.037 5.50884 64.9224 5.99762L65.889 4.2467C64.6816 3.58018 63.3386 3.25568 61.8829 3.25568V5.25568ZM64.9241 5.99854C65.7995 6.47964 66.5008 7.18394 67.0306 8.14173L68.7807 7.17361C68.0795 5.90602 67.1141 4.91998 65.8873 4.24578L64.9241 5.99854ZM67.0306 8.14173C67.5456 9.07269 67.829 10.2532 67.829 11.7273H69.829C69.829 10.0006 69.4968 8.46803 68.7807 7.17361L67.0306 8.14173ZM66.2352 11.7273C66.2352 10.6913 66.0884 9.75295 65.7546 8.94494L63.9061 9.70846C64.1122 10.2073 64.2352 10.8693 64.2352 11.7273H66.2352ZM65.757 8.95069C65.4296 8.14386 64.9306 7.47654 64.2363 7.01149L63.1233 8.67317C63.4328 8.88046 63.7009 9.20273 63.9038 9.70272L65.757 8.95069ZM64.24 7.01394C63.5511 6.54814 62.7491 6.33807 61.8829 6.33807V8.33807C62.4183 8.33807 62.8142 8.46417 63.1197 8.67072L64.24 7.01394ZM61.8829 6.33807C61.0198 6.33807 60.2201 6.54895 59.5296 7.01149L60.6426 8.67317C60.9558 8.46336 61.3541 8.33807 61.8829 8.33807V6.33807ZM59.5296 7.01149C58.8369 7.47543 58.3364 8.14061 58.0041 8.94494L59.8527 9.70846C60.0602 9.20598 60.3314 8.88158 60.6426 8.67317L59.5296 7.01149ZM58.0018 8.95069C57.6746 9.75685 57.5307 10.693 57.5307 11.7273H59.5307C59.5307 10.8676 59.6518 10.2034 59.855 9.70272L58.0018 8.95069ZM57.5307 11.7273C57.5307 12.7615 57.6746 13.6977 58.0018 14.5039L59.855 13.7518C59.6518 13.2512 59.5307 12.587 59.5307 11.7273H57.5307ZM58.0041 14.5096C58.3364 15.3139 58.8369 15.9791 59.5296 16.4431L60.6426 14.7814C60.3314 14.573 60.0602 14.2486 59.8527 13.7461L58.0041 14.5096ZM59.5296 16.4431C60.2201 16.9056 61.0198 17.1165 61.8829 17.1165V15.1165C61.3541 15.1165 60.9558 14.9912 60.6426 14.7814L59.5296 16.4431ZM61.8829 17.1165C62.7491 17.1165 63.5511 16.9064 64.24 16.4406L63.1197 14.7838C62.8142 14.9904 62.4183 15.1165 61.8829 15.1165V17.1165ZM64.2363 16.4431C64.9306 15.978 65.4296 15.3107 65.757 14.5039L63.9038 13.7518C63.7009 14.2518 63.4328 14.5741 63.1233 14.7814L64.2363 16.4431ZM65.7546 14.5096C66.0884 13.7016 66.2352 12.7633 66.2352 11.7273H64.2352C64.2352 12.5852 64.1122 13.2473 63.9061 13.7461L65.7546 14.5096Z" fill="url(#paint3_linear_3_2)"/>
<defs>
<linearGradient id="paint0_linear_3_2" x1="41.1457" y1="77.445" x2="41.146" y2="6.00018" gradientUnits="userSpaceOnUse">
<stop stop-color="#45DCC1"/>
<stop offset="0.463542" stop-color="#8BE573"/>
<stop offset="0.930754" stop-color="#D3EF25"/>
</linearGradient>
<linearGradient id="paint1_linear_3_2" x1="41.1457" y1="77.445" x2="41.146" y2="6.00018" gradientUnits="userSpaceOnUse">
<stop stop-color="#DBFF4D"/>
<stop offset="1" stop-color="#434929"/>
</linearGradient>
<linearGradient id="paint2_linear_3_2" x1="70.8688" y1="0" x2="70.8688" y2="58.7568" gradientUnits="userSpaceOnUse">
<stop offset="0.0819149" stop-color="#434929"/>
<stop offset="1" stop-color="#DBFF4D"/>
</linearGradient>
<linearGradient id="paint3_linear_3_2" x1="70.8688" y1="0" x2="70.8688" y2="58.7568" gradientUnits="userSpaceOnUse">
<stop stop-color="#DBFF4D"/>
<stop offset="1" stop-color="#434929"/>
</linearGradient>
</defs>
</svg>
