<svg width="80" height="80" viewBox="0 0 141 160" fill="none" xmlns="http://www.w3.org/2000/svg">
<path d="M73.8321 146.838L70.4606 152.119L67.0891 146.838L11.2649 59.3936L7.33726 53.2411L14.6365 53.2412L126.286 53.2417L133.585 53.2417L129.657 59.3941L73.8321 146.838Z" fill="url(#paint0_linear_14_3)"/>
<path d="M73.8321 146.838L70.4606 152.119L67.0891 146.838L11.2649 59.3936L7.33726 53.2411L14.6365 53.2412L126.286 53.2417L133.585 53.2417L129.657 59.3941L73.8321 146.838Z" stroke="url(#paint1_linear_14_3)" stroke-width="8"/>
<path d="M73.8321 146.838L70.4606 152.119L67.0891 146.838L11.2649 59.3936L7.33726 53.2411L14.6365 53.2412L126.286 53.2417L133.585 53.2417L129.657 59.3941L73.8321 146.838Z" stroke="black" stroke-opacity="0.2" stroke-width="8"/>
<path d="M12.25 15.6193V9.90909H36.8381V15.6193H28.017V39H21.0852V15.6193H12.25ZM66.4013 24.4545C66.4013 27.6553 65.7857 30.3684 64.5547 32.5938C63.3236 34.8191 61.657 36.5095 59.5547 37.6648C57.4619 38.8201 55.1134 39.3977 52.5092 39.3977C49.8956 39.3977 47.5424 38.8153 45.4496 37.6506C43.3568 36.4858 41.6948 34.7955 40.4638 32.5795C39.2422 30.3542 38.6314 27.6458 38.6314 24.4545C38.6314 21.2538 39.2422 18.5407 40.4638 16.3153C41.6948 14.09 43.3568 12.3996 45.4496 11.2443C47.5424 10.089 49.8956 9.51136 52.5092 9.51136C55.1134 9.51136 57.4619 10.089 59.5547 11.2443C61.657 12.3996 63.3236 14.09 64.5547 16.3153C65.7857 18.5407 66.4013 21.2538 66.4013 24.4545ZM59.2138 24.4545C59.2138 22.5606 58.9439 20.9602 58.4041 19.6534C57.8738 18.3466 57.1068 17.357 56.103 16.6847C55.1087 16.0123 53.9107 15.6761 52.5092 15.6761C51.1172 15.6761 49.9193 16.0123 48.9155 16.6847C47.9117 17.357 47.1399 18.3466 46.6001 19.6534C46.0698 20.9602 45.8047 22.5606 45.8047 24.4545C45.8047 26.3485 46.0698 27.9489 46.6001 29.2557C47.1399 30.5625 47.9117 31.5521 48.9155 32.2244C49.9193 32.8968 51.1172 33.233 52.5092 33.233C53.9107 33.233 55.1087 32.8968 56.103 32.2244C57.1068 31.5521 57.8738 30.5625 58.4041 29.2557C58.9439 27.9489 59.2138 26.3485 59.2138 24.4545ZM81.2592 39H70.5064V9.90909H81.245C84.209 9.90909 86.7611 10.4915 88.9013 11.6562C91.0509 12.8116 92.7081 14.4782 93.8729 16.6562C95.0376 18.8248 95.62 21.4195 95.62 24.4403C95.62 27.4706 95.0376 30.0748 93.8729 32.2528C92.7176 34.4309 91.0651 36.1023 88.9155 37.267C86.7659 38.4223 84.2138 39 81.2592 39ZM77.5376 33.0057H80.9893C82.6181 33.0057 83.996 32.7311 85.1229 32.1818C86.2592 31.6231 87.1162 30.7188 87.6939 29.4688C88.281 28.2093 88.5746 26.5331 88.5746 24.4403C88.5746 22.3475 88.281 20.6809 87.6939 19.4403C87.1068 18.1903 86.2403 17.2907 85.0945 16.7415C83.9581 16.1828 82.5566 15.9034 80.8899 15.9034H77.5376V33.0057ZM127.183 24.4545C127.183 27.6553 126.567 30.3684 125.336 32.5938C124.105 34.8191 122.438 36.5095 120.336 37.6648C118.243 38.8201 115.895 39.3977 113.29 39.3977C110.677 39.3977 108.324 38.8153 106.231 37.6506C104.138 36.4858 102.476 34.7955 101.245 32.5795C100.023 30.3542 99.4126 27.6458 99.4126 24.4545C99.4126 21.2538 100.023 18.5407 101.245 16.3153C102.476 14.09 104.138 12.3996 106.231 11.2443C108.324 10.089 110.677 9.51136 113.29 9.51136C115.895 9.51136 118.243 10.089 120.336 11.2443C122.438 12.3996 124.105 14.09 125.336 16.3153C126.567 18.5407 127.183 21.2538 127.183 24.4545ZM119.995 24.4545C119.995 22.5606 119.725 20.9602 119.185 19.6534C118.655 18.3466 117.888 17.357 116.884 16.6847C115.89 16.0123 114.692 15.6761 113.29 15.6761C111.898 15.6761 110.701 16.0123 109.697 16.6847C108.693 17.357 107.921 18.3466 107.381 19.6534C106.851 20.9602 106.586 22.5606 106.586 24.4545C106.586 26.3485 106.851 27.9489 107.381 29.2557C107.921 30.5625 108.693 31.5521 109.697 32.2244C110.701 32.8968 111.898 33.233 113.29 33.233C114.692 33.233 115.89 32.8968 116.884 32.2244C117.888 31.5521 118.655 30.5625 119.185 29.2557C119.725 27.9489 119.995 26.3485 119.995 24.4545Z" fill="url(#paint2_linear_14_3)"/>
<path d="M12.25 15.6193H11.25V16.6193H12.25V15.6193ZM12.25 9.90909V8.90909H11.25V9.90909H12.25ZM36.8381 9.90909H37.8381V8.90909H36.8381V9.90909ZM36.8381 15.6193V16.6193H37.8381V15.6193H36.8381ZM28.017 15.6193V14.6193H27.017V15.6193H28.017ZM28.017 39V40H29.017V39H28.017ZM21.0852 39H20.0852V40H21.0852V39ZM21.0852 15.6193H22.0852V14.6193H21.0852V15.6193ZM13.25 15.6193V9.90909H11.25V15.6193H13.25ZM12.25 10.9091H36.8381V8.90909H12.25V10.9091ZM35.8381 9.90909V15.6193H37.8381V9.90909H35.8381ZM36.8381 14.6193H28.017V16.6193H36.8381V14.6193ZM27.017 15.6193V39H29.017V15.6193H27.017ZM28.017 38H21.0852V40H28.017V38ZM22.0852 39V15.6193H20.0852V39H22.0852ZM21.0852 14.6193H12.25V16.6193H21.0852V14.6193ZM64.5547 32.5938L63.6797 32.1097L63.6797 32.1097L64.5547 32.5938ZM59.5547 37.6648L59.0731 36.7884L59.0714 36.7893L59.5547 37.6648ZM45.4496 37.6506L45.9359 36.7768L45.9359 36.7768L45.4496 37.6506ZM40.4638 32.5795L39.5872 33.0608L39.5896 33.0652L40.4638 32.5795ZM40.4638 16.3153L39.5887 15.8313L39.5872 15.8341L40.4638 16.3153ZM45.4496 11.2443L45.9329 12.1198L45.9329 12.1198L45.4496 11.2443ZM59.5547 11.2443L59.0714 12.1198L59.0731 12.1207L59.5547 11.2443ZM64.5547 16.3153L63.6797 16.7994L63.6797 16.7994L64.5547 16.3153ZM58.4041 19.6534L57.4775 20.0294L57.4799 20.0352L58.4041 19.6534ZM56.103 16.6847L55.5428 17.5131L55.5465 17.5155L56.103 16.6847ZM48.9155 16.6847L49.472 17.5155L49.472 17.5155L48.9155 16.6847ZM46.6001 19.6534L45.6759 19.2716L45.6735 19.2774L46.6001 19.6534ZM46.6001 29.2557L45.6735 29.6317L45.6759 29.6374L46.6001 29.2557ZM48.9155 32.2244L49.472 31.3936L49.472 31.3936L48.9155 32.2244ZM56.103 32.2244L55.5465 31.3936L55.5428 31.396L56.103 32.2244ZM58.4041 29.2557L57.4798 28.8739L57.4775 28.8797L58.4041 29.2557ZM65.4013 24.4545C65.4013 27.529 64.8102 30.066 63.6797 32.1097L65.4297 33.0778C66.7613 30.6707 67.4013 27.7816 67.4013 24.4545H65.4013ZM63.6797 32.1097C62.5343 34.1802 60.9997 35.7296 59.0731 36.7884L60.0363 38.5412C62.3143 37.2893 64.113 35.4581 65.4297 33.0778L63.6797 32.1097ZM59.0714 36.7893C57.1396 37.8557 54.9599 38.3977 52.5092 38.3977V40.3977C55.2669 40.3977 57.7842 39.7844 60.038 38.5402L59.0714 36.7893ZM52.5092 38.3977C50.0499 38.3977 47.8666 37.8514 45.9359 36.7768L44.9633 38.5244C47.2181 39.7793 49.7413 40.3977 52.5092 40.3977V38.3977ZM45.9359 36.7768C44.0157 35.7081 42.484 34.1567 41.3379 32.0939L39.5896 33.0652C40.9057 35.4342 42.6979 37.2635 44.9633 38.5244L45.9359 36.7768ZM41.3404 32.0983C40.218 30.0537 39.6314 27.5201 39.6314 24.4545H37.6314C37.6314 27.7716 38.2664 30.6547 39.5872 33.0607L41.3404 32.0983ZM39.6314 24.4545C39.6314 21.379 40.2182 18.8408 41.3404 16.7965L39.5872 15.8341C38.2662 18.2406 37.6314 21.1286 37.6314 24.4545H39.6314ZM41.3388 16.7994C42.4848 14.7278 44.0155 13.1782 45.9329 12.1198L44.9663 10.3689C42.698 11.621 40.9049 13.4522 39.5887 15.8313L41.3388 16.7994ZM45.9329 12.1198C47.8641 11.0536 50.0485 10.5114 52.5092 10.5114V8.51136C49.7427 8.51136 47.2206 9.12439 44.9663 10.3689L45.9329 12.1198ZM52.5092 10.5114C54.9599 10.5114 57.1396 11.0533 59.0714 12.1198L60.038 10.3689C57.7842 9.12468 55.2669 8.51136 52.5092 8.51136V10.5114ZM59.0731 12.1207C60.9997 13.1795 62.5343 14.7289 63.6797 16.7994L65.4297 15.8313C64.113 13.451 62.3143 11.6198 60.0363 10.3679L59.0731 12.1207ZM63.6797 16.7994C64.8102 18.8431 65.4013 21.3801 65.4013 24.4545H67.4013C67.4013 21.1275 66.7613 18.2384 65.4297 15.8313L63.6797 16.7994ZM60.2138 24.4545C60.2138 22.4716 59.932 20.7331 59.3284 19.2716L57.4799 20.0352C57.9558 21.1874 58.2138 22.6496 58.2138 24.4545H60.2138ZM59.3307 19.2774C58.7382 17.8172 57.8557 16.655 56.6595 15.8538L55.5465 17.5155C56.3578 18.059 57.0095 18.876 57.4775 20.0294L59.3307 19.2774ZM56.6631 15.8563C55.4771 15.0543 54.0761 14.6761 52.5092 14.6761V16.6761C53.7454 16.6761 54.7402 16.9703 55.5428 17.513L56.6631 15.8563ZM52.5092 14.6761C50.95 14.6761 49.5514 15.0551 48.359 15.8538L49.472 17.5155C50.2871 16.9695 51.2843 16.6761 52.5092 16.6761V14.6761ZM48.359 15.8538C47.1644 16.6539 46.278 17.8139 45.6759 19.2716L47.5244 20.0352C48.0018 18.8793 48.659 18.0601 49.472 17.5155L48.359 15.8538ZM45.6735 19.2774C45.0812 20.737 44.8047 22.4733 44.8047 24.4545H46.8047C46.8047 22.6479 47.0584 21.1835 47.5268 20.0294L45.6735 19.2774ZM44.8047 24.4545C44.8047 26.4358 45.0812 28.1721 45.6735 29.6317L47.5268 28.8797C47.0584 27.7256 46.8047 26.2612 46.8047 24.4545H44.8047ZM45.6759 29.6374C46.278 31.0952 47.1644 32.2552 48.359 33.0553L49.472 31.3936C48.659 30.849 48.0018 30.0298 47.5244 28.8739L45.6759 29.6374ZM48.359 33.0553C49.5514 33.854 50.95 34.233 52.5092 34.233V32.233C51.2843 32.233 50.2871 31.9396 49.472 31.3936L48.359 33.0553ZM52.5092 34.233C54.0761 34.233 55.4771 33.8548 56.6631 33.0528L55.5428 31.396C54.7402 31.9388 53.7454 32.233 52.5092 32.233V34.233ZM56.6595 33.0553C57.8557 32.254 58.7382 31.0919 59.3307 29.6317L57.4775 28.8797C57.0095 30.0331 56.3578 30.8501 55.5465 31.3936L56.6595 33.0553ZM59.3284 29.6374C59.932 28.176 60.2138 26.4375 60.2138 24.4545H58.2138C58.2138 26.2595 57.9558 27.7217 57.4799 28.8739L59.3284 29.6374ZM70.5064 39H69.5064V40H70.5064V39ZM70.5064 9.90909V8.90909H69.5064V9.90909H70.5064ZM88.9013 11.6562L88.4232 12.5346L88.4279 12.5371L88.9013 11.6562ZM93.8729 16.6562L92.991 17.1278L92.9919 17.1294L93.8729 16.6562ZM93.8729 32.2528L92.991 31.7813L92.9895 31.7842L93.8729 32.2528ZM88.9155 37.267L89.3889 38.1479L89.3919 38.1463L88.9155 37.267ZM77.5376 33.0057H76.5376V34.0057H77.5376V33.0057ZM85.1229 32.1818L85.561 33.0807L85.5641 33.0792L85.1229 32.1818ZM87.6939 29.4688L86.7875 29.0462L86.7861 29.0493L87.6939 29.4688ZM87.6939 19.4403L86.7888 19.8655L86.79 19.8681L87.6939 19.4403ZM85.0945 16.7415L84.6532 17.6389L84.6622 17.6432L85.0945 16.7415ZM77.5376 15.9034V14.9034H76.5376V15.9034H77.5376ZM81.2592 38H70.5064V40H81.2592V38ZM71.5064 39V9.90909H69.5064V39H71.5064ZM70.5064 10.9091H81.245V8.90909H70.5064V10.9091ZM81.245 10.9091C84.0779 10.9091 86.4583 11.4652 88.4232 12.5346L89.3793 10.7779C87.0639 9.51776 84.3402 8.90909 81.245 8.90909V10.9091ZM88.4279 12.5371C90.4018 13.598 91.9179 15.1212 92.991 17.1278L94.7547 16.1847C93.4982 13.8352 91.7 12.0251 89.3747 10.7754L88.4279 12.5371ZM92.9919 17.1294C94.0627 19.123 94.62 21.5476 94.62 24.4403H96.62C96.62 21.2914 96.0126 18.5266 94.7538 16.1831L92.9919 17.1294ZM94.62 24.4403C94.62 27.343 94.0625 29.7777 92.991 31.7813L94.7547 32.7244C96.0128 30.372 96.62 27.5983 96.62 24.4403H94.62ZM92.9895 31.7842C91.9256 33.7899 90.414 35.3177 88.4391 36.3878L89.3919 38.1463C91.7162 36.8868 93.5095 35.0719 94.7563 32.7214L92.9895 31.7842ZM88.4421 36.3862C86.4656 37.4484 84.0831 38 81.2592 38V40C84.3445 40 87.0661 39.3963 89.3889 38.1479L88.4421 36.3862ZM77.5376 34.0057H80.9893V32.0057H77.5376V34.0057ZM80.9893 34.0057C82.7262 34.0057 84.2631 33.7133 85.561 33.0807L84.6847 31.2829C83.7288 31.7488 82.5101 32.0057 80.9893 32.0057V34.0057ZM85.5641 33.0792C86.9246 32.4103 87.9368 31.3269 88.6017 29.8882L86.7861 29.0493C86.2956 30.1106 85.5939 30.8359 84.6816 31.2844L85.5641 33.0792ZM88.6002 29.8913C89.2722 28.4497 89.5746 26.6119 89.5746 24.4403H87.5746C87.5746 26.4544 87.2898 27.9688 86.7875 29.0462L88.6002 29.8913ZM89.5746 24.4403C89.5746 22.27 89.2726 20.4385 88.5978 19.0126L86.79 19.8681C87.2894 20.9233 87.5746 22.4251 87.5746 24.4403H89.5746ZM88.599 19.0152C87.923 17.576 86.8989 16.4975 85.5267 15.8397L84.6622 17.6432C85.5817 18.084 86.2905 18.8047 86.7888 19.8655L88.599 19.0152ZM85.5357 15.8441C84.2257 15.2 82.6632 14.9034 80.8899 14.9034V16.9034C82.45 16.9034 83.6905 17.1655 84.6532 17.6389L85.5357 15.8441ZM80.8899 14.9034H77.5376V16.9034H80.8899V14.9034ZM76.5376 15.9034V33.0057H78.5376V15.9034H76.5376ZM125.336 32.5938L124.461 32.1097L124.461 32.1097L125.336 32.5938ZM120.336 37.6648L119.854 36.7884L119.853 36.7893L120.336 37.6648ZM106.231 37.6506L106.717 36.7768L106.717 36.7768L106.231 37.6506ZM101.245 32.5795L100.368 33.0608L100.371 33.0652L101.245 32.5795ZM101.245 16.3153L100.37 15.8313L100.368 15.8341L101.245 16.3153ZM106.231 11.2443L106.714 12.1198L106.714 12.1198L106.231 11.2443ZM120.336 11.2443L119.853 12.1198L119.854 12.1207L120.336 11.2443ZM125.336 16.3153L124.461 16.7994L124.461 16.7994L125.336 16.3153ZM119.185 19.6534L118.259 20.0294L118.261 20.0352L119.185 19.6534ZM116.884 16.6847L116.324 17.5131L116.328 17.5155L116.884 16.6847ZM109.697 16.6847L110.253 17.5155L110.253 17.5155L109.697 16.6847ZM107.381 19.6534L106.457 19.2716L106.455 19.2774L107.381 19.6534ZM107.381 29.2557L106.455 29.6317L106.457 29.6374L107.381 29.2557ZM109.697 32.2244L110.253 31.3936L110.253 31.3936L109.697 32.2244ZM116.884 32.2244L116.328 31.3936L116.324 31.396L116.884 32.2244ZM119.185 29.2557L118.261 28.8739L118.259 28.8797L119.185 29.2557ZM126.183 24.4545C126.183 27.529 125.591 30.066 124.461 32.1097L126.211 33.0778C127.543 30.6707 128.183 27.7816 128.183 24.4545H126.183ZM124.461 32.1097C123.316 34.1802 121.781 35.7296 119.854 36.7884L120.818 38.5412C123.096 37.2893 124.894 35.4581 126.211 33.0778L124.461 32.1097ZM119.853 36.7893C117.921 37.8557 115.741 38.3977 113.29 38.3977V40.3977C116.048 40.3977 118.565 39.7844 120.819 38.5402L119.853 36.7893ZM113.29 38.3977C110.831 38.3977 108.648 37.8514 106.717 36.7768L105.745 38.5244C107.999 39.7793 110.523 40.3977 113.29 40.3977V38.3977ZM106.717 36.7768C104.797 35.7081 103.265 34.1567 102.119 32.0939L100.371 33.0652C101.687 35.4342 103.479 37.2635 105.745 38.5244L106.717 36.7768ZM102.122 32.0983C100.999 30.0537 100.413 27.5201 100.413 24.4545H98.4126C98.4126 27.7716 99.0476 30.6547 100.368 33.0607L102.122 32.0983ZM100.413 24.4545C100.413 21.379 100.999 18.8408 102.122 16.7965L100.368 15.8341C99.0474 18.2406 98.4126 21.1286 98.4126 24.4545H100.413ZM102.12 16.7994C103.266 14.7278 104.797 13.1782 106.714 12.1198L105.748 10.3689C103.479 11.621 101.686 13.4522 100.37 15.8313L102.12 16.7994ZM106.714 12.1198C108.645 11.0536 110.83 10.5114 113.29 10.5114V8.51136C110.524 8.51136 108.002 9.12439 105.748 10.3689L106.714 12.1198ZM113.29 10.5114C115.741 10.5114 117.921 11.0533 119.853 12.1198L120.819 10.3689C118.565 9.12468 116.048 8.51136 113.29 8.51136V10.5114ZM119.854 12.1207C121.781 13.1795 123.316 14.7289 124.461 16.7994L126.211 15.8313C124.894 13.451 123.096 11.6198 120.818 10.3679L119.854 12.1207ZM124.461 16.7994C125.591 18.8431 126.183 21.3801 126.183 24.4545H128.183C128.183 21.1275 127.543 18.2384 126.211 15.8313L124.461 16.7994ZM120.995 24.4545C120.995 22.4716 120.713 20.7331 120.11 19.2716L118.261 20.0352C118.737 21.1874 118.995 22.6496 118.995 24.4545H120.995ZM120.112 19.2774C119.519 17.8172 118.637 16.655 117.441 15.8538L116.328 17.5155C117.139 18.059 117.791 18.876 118.259 20.0294L120.112 19.2774ZM117.444 15.8563C116.258 15.0543 114.857 14.6761 113.29 14.6761V16.6761C114.527 16.6761 115.521 16.9703 116.324 17.513L117.444 15.8563ZM113.29 14.6761C111.731 14.6761 110.333 15.0551 109.14 15.8538L110.253 17.5155C111.068 16.9695 112.066 16.6761 113.29 16.6761V14.6761ZM109.14 15.8538C107.946 16.6539 107.059 17.8139 106.457 19.2716L108.306 20.0352C108.783 18.8793 109.44 18.0601 110.253 17.5155L109.14 15.8538ZM106.455 19.2774C105.862 20.737 105.586 22.4733 105.586 24.4545H107.586C107.586 22.6479 107.84 21.1835 108.308 20.0294L106.455 19.2774ZM105.586 24.4545C105.586 26.4358 105.862 28.1721 106.455 29.6317L108.308 28.8797C107.84 27.7256 107.586 26.2612 107.586 24.4545H105.586ZM106.457 29.6374C107.059 31.0952 107.946 32.2552 109.14 33.0553L110.253 31.3936C109.44 30.849 108.783 30.0298 108.306 28.8739L106.457 29.6374ZM109.14 33.0553C110.333 33.854 111.731 34.233 113.29 34.233V32.233C112.066 32.233 111.068 31.9396 110.253 31.3936L109.14 33.0553ZM113.29 34.233C114.857 34.233 116.258 33.8548 117.444 33.0528L116.324 31.396C115.521 31.9388 114.527 32.233 113.29 32.233V34.233ZM117.441 33.0553C118.637 32.254 119.519 31.0919 120.112 29.6317L118.259 28.8797C117.791 30.0331 117.139 30.8501 116.328 31.3936L117.441 33.0553ZM120.11 29.6374C120.713 28.176 120.995 26.4375 120.995 24.4545H118.995C118.995 26.2595 118.737 27.7217 118.261 28.8739L120.11 29.6374Z" fill="url(#paint3_linear_14_3)"/>
<defs>
<linearGradient id="paint0_linear_14_3" x1="70.4606" y1="144.686" x2="70.4611" y2="28.0934" gradientUnits="userSpaceOnUse">
<stop stop-color="#45DCC1"/>
<stop offset="0.247917" stop-color="#73E5DF"/>
<stop offset="0.930754" stop-color="#6D82EB"/>
</linearGradient>
<linearGradient id="paint1_linear_14_3" x1="70.4606" y1="144.686" x2="70.4611" y2="28.0934" gradientUnits="userSpaceOnUse">
<stop stop-color="#DBFF4D"/>
<stop offset="1" stop-color="#434929"/>
</linearGradient>
<linearGradient id="paint2_linear_14_3" x1="73" y1="0" x2="73" y2="57" gradientUnits="userSpaceOnUse">
<stop offset="0.0819149" stop-color="#434929"/>
<stop offset="1" stop-color="#DBFF4D"/>
</linearGradient>
<linearGradient id="paint3_linear_14_3" x1="73" y1="0" x2="73" y2="57" gradientUnits="userSpaceOnUse">
<stop stop-color="#DBFF4D"/>
<stop offset="1" stop-color="#434929"/>
</linearGradient>
</defs>
</svg>
